<?xml version="1.0" encoding="iso-8859-1"?>
<!-- Generator: Adobe Illustrator 22.0.1, SVG Export Plug-In . SVG Version: 6.00 Build 0)  -->
<svg version="1.1" id="_x35_0" xmlns="http://www.w3.org/2000/svg" xmlns:xlink="http://www.w3.org/1999/xlink" x="0px" y="0px"
	 viewBox="0 0 512 512" style="enable-background:new 0 0 512 512;" xml:space="preserve">
<linearGradient id="SVGID_1_" gradientUnits="userSpaceOnUse" x1="24.4706" y1="27.0622" x2="485.5923" y2="486.4547">
	<stop  offset="0" style="stop-color:#FEF050"/>
	<stop  offset="0.0348" style="stop-color:#FAE73D"/>
	<stop  offset="0.0935" style="stop-color:#F5DB22"/>
	<stop  offset="0.1536" style="stop-color:#F2D20F"/>
	<stop  offset="0.2152" style="stop-color:#F0CD04"/>
	<stop  offset="0.2809" style="stop-color:#EFCB00"/>
	<stop  offset="0.6685" style="stop-color:#D99544"/>
	<stop  offset="0.8876" style="stop-color:#CD6F3C"/>
	<stop  offset="1" style="stop-color:#C34435"/>
</linearGradient>
<path style="fill:url(#SVGID_1_);" d="M470.231,303.457h-17.5v-67.562c0-1.381-1.119-2.5-2.5-2.5s-2.5,1.119-2.5,2.5v67.562h-55
	V160.428h55v26.151c0,1.381,1.119,2.5,2.5,2.5s2.5-1.119,2.5-2.5v-28.651c0-1.381-1.119-2.5-2.5-2.5h-60c-1.381,0-2.5,1.119-2.5,2.5
	v145.529h-15V200.39c0-1.381-1.119-2.5-2.5-2.5s-2.5,1.119-2.5,2.5v103.067h-55V120.428h55v37.5c0,1.381,1.119,2.5,2.5,2.5
	s2.5-1.119,2.5-2.5v-40c0-1.381-1.119-2.5-2.5-2.5h-60c-1.381,0-2.5,1.119-2.5,2.5v185.529h-15V165.832c0-1.381-1.119-2.5-2.5-2.5
	s-2.5,1.119-2.5,2.5v137.625h-5.782c-0.831-37.783-20.135-71.087-49.218-91.232V80.428h55v37.5c0,1.381,1.119,2.5,2.5,2.5
	s2.5-1.119,2.5-2.5v-40c0-1.381-1.119-2.5-2.5-2.5h-57.5V58.27c0-6.763-5.127-12.392-11.673-12.815
	c-3.505-0.214-6.826,0.964-9.374,3.353c-2.512,2.354-3.953,5.679-3.953,9.121v141.222c-12.385-4.624-25.781-7.157-39.758-7.157
	c-1.381,0-2.5,1.119-2.5,2.5V303.5H56.465c-1.381,0-2.5,1.119-2.5,2.5c0,62.864,51.144,114.008,114.008,114.008
	c20.327,0,40.282-5.416,57.708-15.662c1.19-0.7,1.588-2.232,0.888-3.423c-0.699-1.189-2.231-1.586-3.422-0.888
	c-16.659,9.795-35.738,14.973-55.174,14.973c-59.271,0-107.645-47.552-108.98-106.508h108.98c1.381,0,2.5-1.119,2.5-2.5V197.021
	c58.956,1.335,106.508,49.709,106.508,108.979c0,22.386-6.734,43.894-19.474,62.198c-0.789,1.133-0.51,2.691,0.624,3.479
	c1.132,0.789,2.691,0.511,3.479-0.624c8.993-12.921,15.113-27.371,18.15-42.596h99.205c1.381,0,2.5-1.119,2.5-2.5
	s-1.119-2.5-2.5-2.5h-98.312c0.757-4.936,1.175-9.946,1.281-15.001h188.296c2.096,0,4.039,0.843,5.473,2.372
	c1.434,1.528,2.147,3.529,2.011,5.632c-0.254,3.924-3.692,6.997-7.826,6.997h-46.142c-1.381,0-2.5,1.119-2.5,2.5s1.119,2.5,2.5,2.5
	h46.142c6.762,0,12.392-5.128,12.816-11.674c0.226-3.497-0.965-6.826-3.353-9.374C476.998,304.897,473.673,303.457,470.231,303.457z
	 M227.731,77.923c0,0.002,0,0.003,0,0.005s0,0.003,0,0.005v131.017c-4.779-2.953-9.789-5.565-15-7.798V57.928
	c0-2.096,0.842-4.04,2.372-5.474c1.528-1.433,3.529-2.157,5.632-2.01c3.923,0.253,6.996,3.69,6.996,7.825V77.923z"/>
<linearGradient id="SVGID_2_" gradientUnits="userSpaceOnUse" x1="-43.3939" y1="95.1821" x2="417.7278" y2="554.5746">
	<stop  offset="0" style="stop-color:#FEF050"/>
	<stop  offset="0.0348" style="stop-color:#FAE73D"/>
	<stop  offset="0.0935" style="stop-color:#F5DB22"/>
	<stop  offset="0.1536" style="stop-color:#F2D20F"/>
	<stop  offset="0.2152" style="stop-color:#F0CD04"/>
	<stop  offset="0.2809" style="stop-color:#EFCB00"/>
	<stop  offset="0.6685" style="stop-color:#D99544"/>
	<stop  offset="0.8876" style="stop-color:#CD6F3C"/>
	<stop  offset="1" style="stop-color:#C34435"/>
</linearGradient>
<path style="fill:url(#SVGID_2_);" d="M56.338,287.603c0.475,0.568,1.178,0.897,1.919,0.897h89.716c1.381,0,2.5-1.119,2.5-2.5
	v-89.717c0-0.741-0.329-1.443-0.897-1.919c-0.569-0.475-1.32-0.674-2.048-0.541c-9.874,1.788-19.474,4.884-28.533,9.199
	c-1.247,0.594-1.775,2.086-1.182,3.332c0.593,1.246,2.084,1.774,3.332,1.182c7.755-3.694,15.926-6.453,24.328-8.217V283.5H61.292
	c4.062-19.362,13.33-37.217,26.918-51.798c0.941-1.01,0.885-2.592-0.125-3.533c-1.011-0.941-2.591-0.886-3.534,0.125
	c-14.929,16.02-24.873,35.819-28.755,57.261C55.665,286.283,55.863,287.034,56.338,287.603z"/>
</svg>
